<svg width="16" height="16" viewBox="0 0 16 16" fill="none" xmlns="http://www.w3.org/2000/svg">
<path fill-rule="evenodd" clip-rule="evenodd" d="M13.3078 7.70166C10.6247 7.00997 8.52808 4.91335 7.83638 2.23027L7.53854 1.0752L7.24069 2.23027C6.549 4.91335 4.45241 7.00997 1.76934 7.70166L0.614258 7.99951L1.76934 8.29797C4.45241 8.98966 6.549 11.0863 7.24069 13.7687L7.53854 14.9244L7.83638 13.7687C8.52808 11.0863 10.6247 8.98966 13.3078 8.29797L14.4628 7.99951L13.3078 7.70166Z" fill="#757575"/>
<path fill-rule="evenodd" clip-rule="evenodd" d="M11.693 5.38269C11.693 4.66762 12.477 3.84485 13.2308 3.84485C12.5053 3.84485 11.693 3.01346 11.693 2.30762C11.693 3.01346 10.8881 3.84485 10.1558 3.84485C10.8604 3.84485 11.693 4.66331 11.693 5.38269Z" fill="#757575"/>
</svg>
