<svg width="32" height="32" viewBox="0 0 32 32" fill="none" xmlns="http://www.w3.org/2000/svg">
<path d="M29.3333 21.4532C29.3333 26.1598 26.3053 29.3332 21.7866 29.3332L10.2266 29.3332C5.70659 29.3332 2.66659 26.1598 2.66659 21.4532L2.66659 10.5598C2.66659 5.83984 5.70659 2.6665 10.2266 2.6665L21.7866 2.6665C26.3053 2.6665 29.3333 5.83984 29.3333 10.5598L29.3333 21.4532ZM21.7066 16.2798C22.0933 15.8932 22.0933 15.2532 21.7066 14.8665L16.7066 9.83984C16.3333 9.4665 15.6666 9.4665 15.2933 9.83984L10.2933 14.8665C9.90659 15.2532 9.90659 15.8932 10.2933 16.2798C10.6933 16.6665 11.3199 16.6665 11.7199 16.2798L14.9999 12.9732L14.9999 21.4398C14.9999 21.9998 15.4533 22.4398 15.9999 22.4398C16.5599 22.4398 16.9999 21.9998 16.9999 21.4398L16.9999 12.9732L20.2933 16.2798C20.4799 16.4665 20.7466 16.5732 20.9999 16.5732C21.2519 16.5732 21.5066 16.4665 21.7066 16.2798Z" fill="black"/>
</svg>
