<svg width="24" height="24" viewBox="0 0 24 24" fill="none" xmlns="http://www.w3.org/2000/svg">
<path fill-rule="evenodd" clip-rule="evenodd" d="M2.87803 2.51111L2.77658 2.5005C2.4074 2.487 2.07586 2.74808 2.01111 3.12222L2.0005 3.22366C1.987 3.59285 2.24808 3.92438 2.62222 3.98914L4.13122 4.25012L5.04575 15.1459L5.06468 15.3096C5.24868 16.5521 6.31732 17.4861 7.59012 17.4861H18.5021L18.6665 17.4809C19.8628 17.4045 20.8547 16.4998 21.0293 15.2979L21.9784 8.73954L21.9948 8.58889C22.0821 7.38982 21.1322 6.34912 19.9091 6.34912H5.81222L5.57749 3.54739L5.5598 3.43654C5.49136 3.14822 5.25698 2.92285 4.95803 2.87111L2.87803 2.51111ZM7.47395 15.9803C6.97868 15.9261 6.58259 15.5283 6.54029 15.0213L5.93799 7.84961H19.9089L19.997 7.85609C20.3128 7.90303 20.5409 8.1983 20.4936 8.52526L19.5446 15.0832L19.5208 15.2005C19.4005 15.659 18.985 15.9866 18.5019 15.9866H7.58989L7.47395 15.9803ZM5.90852 20.5854C5.90852 19.7493 6.5862 19.0704 7.42252 19.0704C8.25874 19.0704 8.93752 19.7492 8.93752 20.5854C8.93752 21.4217 8.25862 22.0994 7.42252 22.0994C6.58631 22.0994 5.90852 21.4216 5.90852 20.5854ZM17.1599 20.5854C17.1599 19.7492 17.8387 19.0704 18.6749 19.0704C19.5111 19.0704 20.1899 19.7492 20.1899 20.5854C20.1899 21.4217 19.511 22.0994 18.6749 22.0994C17.8388 22.0994 17.1599 21.4217 17.1599 20.5854ZM17.6486 10.7951C17.6486 10.3809 17.3128 10.0451 16.8986 10.0451H14.1256L14.0239 10.052C13.6578 10.1016 13.3756 10.4154 13.3756 10.7951C13.3756 11.2093 13.7114 11.5451 14.1256 11.5451H16.8986L17.0004 11.5383C17.3665 11.4886 17.6486 11.1748 17.6486 10.7951Z" fill="#200E32"/>
</svg>
