<svg width="24" height="24" viewBox="0 0 26 26" fill="none" xmlns="http://www.w3.org/2000/svg">
<path fill-rule="evenodd" clip-rule="evenodd" d="M8.3831 2.13651C9.52011 1.90387 10.9217 1.84375 12.6085 1.84375C14.2953 1.84375 15.6969 1.90387 16.8339 2.13651C17.9852 2.37208 18.9341 2.79797 19.6469 3.57876C20.3514 4.35034 20.7434 5.37953 20.968 6.65563C21.1923 7.92945 21.2627 9.52877 21.2627 11.5104C21.2627 12.2751 21.264 12.9932 21.2652 13.6667C21.271 16.8521 21.2749 19.042 21.1313 20.4702C21.0456 21.3224 20.8978 22.0457 20.5728 22.5652C20.398 22.8446 20.1659 23.0761 19.8645 23.2303C19.5686 23.3817 19.2561 23.4328 18.9569 23.4328C18.2736 23.4328 17.6109 23.0569 17.0761 22.6854C16.5539 22.3226 16.0043 21.853 15.4845 21.4089C15.4433 21.3737 15.4023 21.3386 15.3615 21.3038C14.7875 20.814 14.2484 20.3618 13.7425 20.0297C13.2177 19.6852 12.8488 19.5531 12.6085 19.5531C12.3682 19.5531 11.9993 19.6852 11.4745 20.0297C10.9686 20.3618 10.4295 20.814 9.85552 21.3038C9.81472 21.3386 9.7737 21.3737 9.7325 21.4089C9.21272 21.853 8.66309 22.3226 8.14094 22.6854C7.60607 23.0569 6.94343 23.4328 6.26006 23.4328C5.96093 23.4328 5.64843 23.3817 5.35245 23.2303C5.05107 23.0761 4.81897 22.8446 4.64421 22.5652C4.31923 22.0457 4.17144 21.3224 4.08573 20.4702C3.94208 19.042 3.94604 16.8521 3.9518 13.6667C3.95301 12.9932 3.95431 12.2751 3.95431 11.5104C3.95431 9.52877 4.02471 7.92945 4.24898 6.65563C4.47364 5.37953 4.86561 4.35034 5.57007 3.57876C6.28294 2.79797 7.2318 2.37208 8.3831 2.13651ZM5.80505 6.92948C5.60598 8.06023 5.53431 9.54433 5.53431 11.5104C5.53431 12.2938 5.53307 13.0234 5.53192 13.7029C5.52651 16.8894 5.52298 18.9717 5.6578 20.3122C5.74089 21.1383 5.86696 21.5408 5.98379 21.7276C6.02993 21.8014 6.06072 21.8181 6.07208 21.8239C6.08882 21.8325 6.1389 21.8531 6.26006 21.8531C6.41671 21.8531 6.7271 21.744 7.23937 21.3881C7.69351 21.0726 8.18479 20.6531 8.72416 20.1925C8.75915 20.1626 8.79435 20.1325 8.82975 20.1023C9.39232 19.6222 10.005 19.1045 10.6074 18.7092C11.1908 18.3262 11.8866 17.9734 12.6085 17.9734C13.3304 17.9734 14.0262 18.3262 14.6096 18.7092C15.212 19.1045 15.8247 19.6222 16.3872 20.1023C16.4226 20.1325 16.4578 20.1626 16.4928 20.1925C17.0322 20.6531 17.5235 21.0726 17.9776 21.3881C18.4899 21.744 18.8003 21.8531 18.9569 21.8531C19.0781 21.8531 19.1282 21.8325 19.1449 21.8239C19.1563 21.8181 19.1871 21.8014 19.2332 21.7276C19.35 21.5408 19.4761 21.1383 19.5592 20.3122C19.694 18.9717 19.6905 16.8894 19.6851 13.7029C19.6839 13.0234 19.6827 12.2938 19.6827 11.5104C19.6827 9.54433 19.611 8.06023 19.4119 6.92948C19.2133 5.80101 18.9006 5.10445 18.48 4.64375C18.0678 4.19226 17.4711 3.87931 16.5171 3.68412C15.5489 3.48601 14.2855 3.42343 12.6085 3.42343C10.9315 3.42343 9.66813 3.48601 8.69989 3.68412C7.74594 3.87931 7.14923 4.19226 6.737 4.64375C6.31638 5.10445 6.00373 5.80101 5.80505 6.92948Z" fill="black"/>
<path d="M8.31043 2.77344L18.2255 3.86328L20.3022 6.22608V21.021L19.6533 22.4226L17.6288 22.0073L13.4499 18.8407L11.6589 18.5552L11.1657 19.5674L7.14257 22.4226L5.14396 22.1371L4.70264 17.3352L5.84465 4.61681L8.31043 2.77344Z" fill="black" stroke="black"/>
</svg>
