<svg width="25" height="25" viewBox="0 0 25 25" fill="none" xmlns="http://www.w3.org/2000/svg">
<path fill-rule="evenodd" clip-rule="evenodd" d="M3.72546 7.26874C3.72546 4.64352 3.75357 3.76874 7.22546 3.76874C10.6974 3.76874 10.7255 4.64352 10.7255 7.26874C10.7255 9.89395 10.7365 10.7687 7.22546 10.7687C3.71439 10.7687 3.72546 9.89395 3.72546 7.26874Z" stroke="black" stroke-width="1.5" stroke-linecap="round" stroke-linejoin="round"/>
<path fill-rule="evenodd" clip-rule="evenodd" d="M14.7255 7.26874C14.7255 4.64352 14.7536 3.76874 18.2255 3.76874C21.6974 3.76874 21.7255 4.64352 21.7255 7.26874C21.7255 9.89395 21.7365 10.7687 18.2255 10.7687C14.7144 10.7687 14.7255 9.89395 14.7255 7.26874Z" stroke="black" stroke-width="1.5" stroke-linecap="round" stroke-linejoin="round"/>
<path fill-rule="evenodd" clip-rule="evenodd" d="M3.72546 18.2687C3.72546 15.6435 3.75357 14.7687 7.22546 14.7687C10.6974 14.7687 10.7255 15.6435 10.7255 18.2687C10.7255 20.894 10.7365 21.7687 7.22546 21.7687C3.71439 21.7687 3.72546 20.894 3.72546 18.2687Z" stroke="black" stroke-width="1.5" stroke-linecap="round" stroke-linejoin="round"/>
<path fill-rule="evenodd" clip-rule="evenodd" d="M14.7255 18.2687C14.7255 15.6435 14.7536 14.7687 18.2255 14.7687C21.6974 14.7687 21.7255 15.6435 21.7255 18.2687C21.7255 20.894 21.7365 21.7687 18.2255 21.7687C14.7144 21.7687 14.7255 20.894 14.7255 18.2687Z" stroke="black" stroke-width="1.5" stroke-linecap="round" stroke-linejoin="round"/>
</svg>
