<svg width="24" height="24" viewBox="0 0 24 24" fill="none" xmlns="http://www.w3.org/2000/svg">
<path fill-rule="evenodd" clip-rule="evenodd" d="M4.54 2H7.92C9.33 2 10.46 3.15 10.46 4.561V7.97C10.46 9.39 9.33 10.53 7.92 10.53H4.54C3.14 10.53 2 9.39 2 7.97V4.561C2 3.15 3.14 2 4.54 2ZM4.54 13.4688H7.92C9.33 13.4688 10.46 14.6097 10.46 16.0297V19.4387C10.46 20.8487 9.33 21.9987 7.92 21.9987H4.54C3.14 21.9987 2 20.8487 2 19.4387V16.0297C2 14.6097 3.14 13.4688 4.54 13.4688ZM19.4601 2H16.0801C14.6701 2 13.5401 3.15 13.5401 4.561V7.97C13.5401 9.39 14.6701 10.53 16.0801 10.53H19.4601C20.8601 10.53 22.0001 9.39 22.0001 7.97V4.561C22.0001 3.15 20.8601 2 19.4601 2ZM16.08 13.4688H19.46C20.86 13.4688 22 14.6097 22 16.0297V19.4387C22 20.8487 20.86 21.9987 19.46 21.9987H16.08C14.67 21.9987 13.54 20.8487 13.54 19.4387V16.0297C13.54 14.6097 14.67 13.4688 16.08 13.4688Z" fill="#200E32"/>
</svg>
