<svg width="24" height="24" viewBox="0 0 24 24" fill="none" xmlns="http://www.w3.org/2000/svg">
<path d="M10.1199 14.3617C8.80478 18.4474 9.47987 20.0749 10.7838 20.3429C11.282 20.4454 11.4888 20.4401 11.8828 20.0564C13.158 18.5528 15.3116 16.199 16.4865 14.9247C16.79 14.5954 16.9418 14.4308 17.0494 14.245C17.1496 14.0722 17.2213 13.8886 17.2648 13.6937C17.3116 13.4842 17.3116 13.2614 17.3116 12.8159V7.36203C17.3116 6.0591 17.3116 5.40763 17.0621 4.90823C16.833 4.44984 16.4614 4.07819 16.003 3.84915C15.5036 3.59961 14.8521 3.59961 13.5492 3.59961H7.84993C6.80057 3.59961 6.27589 3.59961 5.83589 3.77825C5.43085 3.9427 5.07761 4.21328 4.81336 4.56153C4.52631 4.93982 4.38967 5.44641 4.11641 6.45955L3.63475 8.24536C3.11874 10.1586 2.86072 11.1152 3.07643 11.872C3.27372 12.5642 3.72671 13.1556 4.34365 13.5263C5.01818 13.9316 6.00896 13.9316 7.99052 13.9316H9.81081C10.1512 13.9316 10.216 14.063 10.1199 14.3617Z" stroke="black" stroke-width="1.5" stroke-linecap="round" stroke-linejoin="round"/>
<path d="M21 3.99426V13.0429" stroke="black" stroke-width="1.5" stroke-linecap="round" stroke-linejoin="round"/>
</svg>
