<svg width="24" height="24" viewBox="0 0 24 24" fill="none" xmlns="http://www.w3.org/2000/svg">
<path d="M13.8812 9.63934C15.1963 5.55357 14.5212 3.92607 13.2173 3.65805C12.7191 3.55565 12.5123 3.5609 12.1183 3.9446C10.8431 5.4482 8.68951 7.802 7.51462 9.07632C7.21103 9.4056 7.05922 9.57025 6.95162 9.75597C6.8515 9.92879 6.77976 10.1124 6.73623 10.3073C6.68945 10.5168 6.68945 10.7396 6.68945 11.1851V16.6389C6.68945 17.9419 6.68945 18.5933 6.93899 19.0927C7.16803 19.5511 7.53968 19.9228 7.99806 20.1518C8.49747 20.4013 9.14893 20.4013 10.4519 20.4013H16.1511C17.2005 20.4013 17.7252 20.4013 18.1652 20.2227C18.5702 20.0583 18.9234 19.7877 19.1877 19.4394C19.4747 19.0611 19.6114 18.5546 19.8846 17.5414L20.3663 15.7556C20.8823 13.8424 21.1403 12.8858 20.9246 12.129C20.7273 11.4368 20.2743 10.8454 19.6574 10.4747C18.9829 10.0694 17.9921 10.0694 16.0105 10.0694H14.1902C13.8499 10.0694 13.7851 9.93796 13.8812 9.63934Z" stroke="black" stroke-width="1.5" stroke-linecap="round" stroke-linejoin="round"/>
<path d="M3 20.0057V10.957" stroke="black" stroke-width="1.5" stroke-linecap="round" stroke-linejoin="round"/>
</svg>
