<svg width="24" height="24" viewBox="0 0 24 24" fill="none" xmlns="http://www.w3.org/2000/svg">
<g clip-path="url(#clip0_1176_13413)">
<path d="M13.8812 9.63934C15.1963 5.55357 14.5212 3.92607 13.2173 3.65805C12.7191 3.55565 12.5123 3.5609 12.1183 3.9446C10.8431 5.4482 8.68951 7.802 7.51462 9.07632C7.21103 9.4056 7.05922 9.57025 6.95162 9.75597C6.8515 9.92879 6.77976 10.1124 6.73623 10.3073C6.68945 10.5168 6.68945 10.7396 6.68945 11.1851V16.6389C6.68945 17.9419 6.68945 18.5933 6.93899 19.0927C7.16803 19.5511 7.53968 19.9228 7.99806 20.1518C8.49747 20.4013 9.14893 20.4013 10.4519 20.4013H16.1511C17.2005 20.4013 17.7252 20.4013 18.1652 20.2227C18.5702 20.0583 18.9234 19.7877 19.1877 19.4394C19.4747 19.0611 19.6114 18.5546 19.8846 17.5414L20.3663 15.7556C20.8823 13.8424 21.1403 12.8858 20.9246 12.129C20.7273 11.4368 20.2743 10.8454 19.6574 10.4747C18.9829 10.0694 17.9921 10.0694 16.0105 10.0694H14.1902C13.8499 10.0694 13.7851 9.93796 13.8812 9.63934Z" stroke="black" stroke-width="1.5" stroke-linecap="round" stroke-linejoin="round"/>
<path d="M3 20.0057V10.957" stroke="black" stroke-width="1.5" stroke-linecap="round" stroke-linejoin="round"/>
<path fill-rule="evenodd" clip-rule="evenodd" d="M21.5391 12.0582C21.3231 11.3012 20.8331 10.6621 20.1601 10.2582C19.4261 9.81715 18.4101 9.81715 16.3841 9.81715H14.5641C14.5171 9.81715 14.4861 9.81515 14.4681 9.81515C14.4711 9.79315 14.4781 9.76015 14.4941 9.71215C15.3241 7.13115 15.4401 5.30015 14.8381 4.27015C14.5691 3.80715 14.1661 3.51815 13.6421 3.41115C13.1011 3.30015 12.7941 3.29915 12.3021 3.78115C11.0371 5.27215 8.87908 7.63015 7.69208 8.91815C7.38408 9.25315 7.22908 9.42115 7.10908 9.62815C6.99708 9.82215 6.91508 10.0322 6.86608 10.2492C6.81308 10.4872 6.81308 10.7192 6.81308 11.1822V16.6362C6.81308 17.9762 6.81308 18.6492 7.08908 19.2022C7.34108 19.7052 7.75708 20.1211 8.26108 20.3731C8.81208 20.6491 9.48508 20.6492 10.8261 20.6492H16.5251C17.6051 20.6492 18.1481 20.6492 18.6331 20.4522C19.0811 20.2691 19.4711 19.9701 19.7611 19.5872C20.0781 19.1692 20.2191 18.6462 20.5001 17.6042L20.9811 15.8182C21.5091 13.8632 21.7731 12.8812 21.5391 12.0582Z" fill="black"/>
<path fill-rule="evenodd" clip-rule="evenodd" d="M3.375 9.60059C2.823 9.60059 2.375 10.0476 2.375 10.6006V19.6496C2.375 20.2026 2.823 20.6496 3.375 20.6496C3.927 20.6496 4.375 20.2026 4.375 19.6496V10.6006C4.375 10.0476 3.927 9.60059 3.375 9.60059Z" fill="black"/>
</g>
<defs>
<clipPath id="clip0_1176_13413">
<rect width="24" height="24" fill="white"/>
</clipPath>
</defs>
</svg>
