<svg width="50" height="56" viewBox="0 0 50 56" fill="none" xmlns="http://www.w3.org/2000/svg">
<path d="M22.3688 35.5602C22.9301 36.4871 23.5103 37.4046 24.009 38.3675C24.758 39.812 25.3572 41.3398 25.6891 42.9359C26.0683 42.208 26.5329 41.5805 26.8344 40.8071C27.134 40.0413 27.3425 39.2395 27.4563 38.4263C27.5701 37.6131 27.5303 36.9383 27.3444 36.1497C27.1586 35.3611 26.8268 34.5384 26.44 33.7878C26.0967 33.1187 25.7004 32.478 25.2871 31.8505C23.5862 29.2782 21.6104 26.886 20.0214 24.2417C18.4323 21.5973 17.2226 18.6175 17.2624 15.5334C17.3003 12.6502 18.4305 9.87886 19.9114 7.40513C21.4207 4.88591 23.3131 2.59794 25.5013 0.641704C25.6682 0.491953 25.8464 0.243632 25.7004 0.074926C25.5468 -0.0994673 25.2662 0.0635525 25.1012 0.228468C23.7455 1.58381 22.4428 2.99222 21.197 4.44992C18.5063 7.60037 16.0242 11.1243 15.2202 15.1884C14.5641 18.5113 15.023 22.3025 16.5589 25.3278C18.2257 28.6167 20.1427 31.7861 22.0105 34.965C22.128 35.164 22.2456 35.363 22.3669 35.5602H22.3688Z" fill="#313032"/>
<path d="M24.9348 22.5904C24.6466 22.1905 24.5783 21.8474 24.8419 21.3924C25.2059 20.7688 25.5264 20.1148 25.8051 19.4494C26.3038 18.259 26.7703 17.0667 26.8139 15.7322C26.9201 12.4548 25.7388 9.64741 23.8009 7.09596C23.3192 6.46283 23.2358 6.46852 22.6404 7.04857C21.3889 8.26553 20.6191 9.7782 19.8928 11.3402C18.7399 13.8139 18.6944 16.3293 19.4017 18.9092C20.0862 21.4057 21.478 23.5306 22.904 25.6423C24.1915 27.5493 25.5814 29.3899 26.6451 31.4409L27.3979 33.1279C27.944 32.2617 28.2285 31.2911 28.4484 30.3073C28.7594 28.916 28.5603 27.6308 27.6653 26.4536C26.7115 25.1968 25.8506 23.8699 24.9291 22.5904H24.9348ZM23.8388 20.8389C21.5994 18.0107 20.4238 14.8887 21.1917 11.2321C21.3093 10.6691 21.5501 10.1497 21.808 9.64172C22.0753 9.11096 22.2839 9.09958 22.6537 9.59812C24.2996 11.8216 25.2875 14.284 25.3159 17.0857C25.3159 18.35 25.1358 19.5764 24.5935 20.7328C24.3849 21.1763 24.1611 21.2446 23.8388 20.8389Z" fill="#DC4D28"/>
<path d="M46.7084 29.5985C48.2458 28.9619 48.9759 27.1999 48.3391 25.663C47.7023 24.1261 45.9397 23.3963 44.4023 24.0329C42.865 24.6695 42.1349 26.4314 42.7717 27.9683C43.4085 29.5052 45.171 30.2351 46.7084 29.5985Z" fill="#DC4D28"/>
<path d="M17.8545 29.2312C17.5379 29.5042 16.8116 31.2197 16.6182 31.7144C16.1461 32.9276 15.9204 34.2943 16.1404 35.5871C16.4627 37.4941 17.4108 38.8418 18.4878 40.381C19.6294 42.0131 20.6988 43.6964 21.6924 45.4233C22.6727 47.1255 23.5772 48.8713 24.4059 50.6532C24.8306 51.5687 25.2364 52.4919 25.6213 53.4245C25.9 54.0993 26.1959 55.5949 26.7306 56.0006C26.9221 55.6082 26.8918 55.1381 26.9657 54.704C27.5365 51.3962 27.125 47.8989 25.7199 44.847C24.294 41.7496 22.1475 39.0674 20.4087 36.152C19.7602 35.0677 19.1667 33.9474 18.6907 32.7779C18.5182 32.3533 18.3437 31.9268 18.2413 31.4794C18.1389 31.032 17.9076 29.1838 17.8564 29.2293L17.8545 29.2312Z" fill="#313032"/>
<path d="M22.8889 50.0613C10.2679 50.0613 0 39.7967 0 27.1778C0 15.5655 8.68833 5.79381 20.2096 4.45174C20.2646 4.44605 20.3082 4.48396 20.3139 4.53514C20.3195 4.58632 20.2835 4.63371 20.2304 4.6394C8.8059 5.97199 0.189619 15.6622 0.189619 27.1778C0.189619 39.6906 10.3721 49.8698 22.8889 49.8698C22.942 49.8698 22.9837 49.9115 22.9837 49.9646C22.9837 50.0177 22.942 50.0594 22.8889 50.0594V50.0613Z" fill="#313032"/>
<path d="M27.5219 49.5902C27.4783 49.5902 27.4384 49.5599 27.429 49.5144C27.4176 49.4632 27.4517 49.4121 27.5029 49.4026C36.6975 47.5051 43.8537 40.0043 45.3138 30.7349C45.3214 30.6837 45.3707 30.6477 45.4219 30.6553C45.4731 30.6629 45.5091 30.7122 45.5015 30.7634C44.0301 40.1105 36.8132 47.6757 27.5427 49.5883C27.537 49.5883 27.5294 49.5902 27.5238 49.5902H27.5219Z" fill="#313032"/>
<path d="M45.2596 22.8717C45.2159 22.8717 45.1761 22.8394 45.1666 22.7958C43.0903 12.1863 33.7212 4.48643 22.8902 4.48643C22.8371 4.48643 22.7954 4.44473 22.7954 4.39165C22.7954 4.33858 22.8371 4.29688 22.8902 4.29688C33.8123 4.29688 43.2591 12.0612 45.3544 22.7598C45.3638 22.811 45.3316 22.8603 45.2804 22.8717C45.2747 22.8717 45.269 22.8717 45.2614 22.8717H45.2596Z" fill="#313032"/>
</svg>
